PathFileType	4	(X/Y/Z)	Patient4_TMGait_0pt3_01_left_24.trc.trc
DataRate	CameraRate	NumFrames	NumMarkers	Units	OrigDataRate	OrigDataStartFrame	OrigNumFrames
52.434456928839	52.434456928839	6	33	mm	52.434456928839	106	       141
Frame#	Time	Sacral			L.Shoulder			Chest			R.Shoulder			Neck			R.ASIS			L.ASIS			R.Thigh.Superior			R.Thigh.Lateral			R.Thigh.Inferior			R.Patella			L.Thigh.Superior			L.Thigh.Lateral			L.Thigh.Inferior			L.Patella			L.Shank.Superior			L.Shank.Lateral			L.Shank.Inferior			R.Shank.Superior			R.Shank.Lateral			R.Shank.Inferior			R.Heel			R.Midfoot.Superior			R.Midfoot.Lateral			R.Toe			L.Heel			L.Midfoot.Lateral			L.Midfoot.Superior			L.Toe			L.Elbow			L.Wrist			R.Elbow			R.Wrist			
		X1	Y1	Z1	X2	Y2	Z2	X3	Y3	Z3	X4	Y4	Z4	X5	Y5	Z5	X6	Y6	Z6	X7	Y7	Z7	X8	Y8	Z8	X9	Y9	Z9	X10	Y10	Z10	X11	Y11	Z11	X12	Y12	Z12	X13	Y13	Z13	X14	Y14	Z14	X15	Y15	Z15	X16	Y16	Z16	X17	Y17	Z17	X18	Y18	Z18	X19	Y19	Z19	X20	Y20	Z20	X21	Y21	Z21	X22	Y22	Z22	X23	Y23	Z23	X24	Y24	Z24	X25	Y25	Z25	X26	Y26	Z26	X27	Y27	Z27	X28	Y28	Z28	X29	Y29	Z29	X30	Y30	Z30	X31	Y31	Z31	X32	Y32	Z32	X33	Y33	Z33	

106	46.992500000000	719.563780300600	976.844249885727	598.600928359876	898.749396903189	1406.511401743153	405.714286349242	1002.361234480153	1342.636907137434	567.537736461123	920.782743812492	1418.603602262828	741.105079730807	883.793677706205	1471.442179682437	562.632160618636	956.850999804455	922.240612425129	708.585242299349	932.160931338429	942.154235170113	435.621623654556	1011.453772158083	726.086279489278	662.100234434999	938.854225760946	603.917025913979	710.859563806983	1018.074036255279	563.107085435852	625.270684731562	1022.162574685110	463.520887341731	625.021142890277	1027.880149565790	768.827047471426	465.505929338930	996.524409094423	641.625054928651	383.060046776763	1100.693619108384	585.027309438677	451.957233303393	1119.476095603397	495.667933578395	437.340550440250	1054.651611264456	427.957072569442	421.413004093160	913.610420999254	382.516077578727	374.174161534915	912.231418078876	247.567579169681	413.765036653574	969.597621879547	378.003765799228	624.897047692473	876.802930650579	288.441814907126	681.588091185310	892.255486209427	192.327329794182	612.120365997814	725.886892650301	46.292224566159	576.109061995742	898.160593433974	96.252244007666	616.494766359141	807.388378511636	38.219280901888	652.871941815446	1015.702236036260	39.992850010260	649.130571249588	729.735154616975	165.522305948400	454.282752085365	784.097296268351	134.704290294074	365.339796801437	889.348104445096	147.958961368295	380.814006053381	971.744867852410	46.688616000761	332.924019539456	865.505851216399	1047.505208913169	307.600166723195	905.484778295175	790.237949420277	312.241350219961	940.955310241853	1071.508851691120	873.287389196709	1113.171506404009	878.528903196771	901.506857106926	
107	47.011571428571	718.333790853220	976.132619131398	601.285057404063	893.948604849431	1405.464505779273	405.480897534740	1000.565878657985	1342.073776804323	565.537498297166	922.025654038118	1418.433930720861	740.421687657068	881.915477961729	1470.680292476421	562.341813345712	956.644596683248	921.285772416765	708.071335619657	928.702292756716	941.529882354678	435.499025936727	1009.950001396691	724.858473200075	661.056341464527	937.850507785911	602.846764951962	710.590300443755	1015.989133013026	561.983751974926	624.007172871939	1019.729244257354	462.217496016138	623.640714052038	1025.720766395950	769.793602085117	465.439216116861	995.399521846399	642.340509194130	383.077594038053	1100.052385303738	586.825035177154	451.690449272001	1120.522806133572	498.575908636731	437.001104083854	1058.713283122821	429.422779306365	420.669536641433	920.301296994627	377.211121438962	373.347391191642	926.052067476978	242.155459299392	412.348435919923	966.498864057926	376.926773472862	623.971822842199	873.453396340006	287.918890864466	681.289209685113	887.618611583410	191.747830766137	611.729750234617	720.218055962703	46.450573472869	576.285658806586	892.447998667856	96.152385334156	616.393769400181	801.702685111639	38.273146263427	652.963871244209	1009.982863233356	39.863484775934	649.149543425685	748.343561981918	150.155496606584	452.724829824776	804.182557378683	122.984999051832	363.538142595533	908.512241763746	141.898800615520	379.066060274297	996.339781115136	45.896965079469	330.461183663171	846.187948781884	1047.949757780988	309.377379493969	870.462940205489	788.648729759849	315.563847522503	952.581087062636	1073.189971136041	874.737793570190	1137.685902287174	892.284236797667	899.140916397642	
108	47.030642857143	717.255555735767	976.197978673563	603.776091357424	889.182478034653	1405.178358007441	405.138339218211	998.838400630555	1342.183642005995	563.295191740974	923.418977071894	1418.946015495638	739.446041736162	880.092352718145	1470.562469222967	561.874179584815	956.458701033530	920.899475228992	707.313874445359	925.356821441574	941.510674170779	435.171449143113	1007.955437678099	723.939935954202	660.001621557928	935.960362197322	602.303290365540	710.386695944730	1012.919881518811	561.148378265382	622.902739780896	1016.111700276431	461.354594597401	622.487654279279	1023.072668706769	770.799315263744	465.124540507774	993.314680095519	643.205120564465	382.756748545764	1098.247006785260	588.449490602715	451.025153830309	1120.238912560472	501.512636550521	436.310563452074	1061.727716304140	431.060842693482	419.580942524118	926.639339182292	371.663045526903	371.907024490072	939.969477831594	236.864660941021	410.459599316607	962.460700230492	376.298643684990	623.249098014318	869.396462954425	287.620730388800	681.146429125616	882.599063266494	191.434788250380	611.489319011918	714.538383930739	46.619680966140	576.524704780278	886.733689071809	96.096493780247	616.387024798984	796.003277404990	38.326338778137	653.078051959652	1004.249871057770	39.742395801902	649.160916324872	767.881975880417	134.679269808095	450.470560861638	825.211007144777	111.216385850572	361.205983974372	928.234673872427	135.968935758512	376.912239117007	1021.481056799991	45.577969296510	327.976230262945	826.877456739906	1049.976317907951	310.851258384515	837.176610297309	789.823573895265	318.988255867966	964.399035372705	1076.023467727262	875.821148544268	1161.760780499416	908.269204463302	895.849828399168	
109	47.049714285714	716.302272831791	977.056919648565	606.047518772994	884.523769735988	1405.646545342293	404.680885352976	997.196517184312	1342.948602469950	560.833739741781	924.956483295525	1420.138325335640	738.174820708817	878.349247973885	1471.087621147818	561.229303034045	956.266523078571	921.091246112681	706.329209096581	922.131949702657	942.121431111784	434.644292619330	1005.453888312168	723.348010217014	658.946660238357	933.156129829823	602.295717436271	710.245861353662	1008.850631582037	560.614615434438	621.974231648982	1011.300547903058	460.949496726495	621.584766886886	1019.970054540199	771.872182295344	464.554273500290	990.298082363663	644.229796847362	382.097215536517	1095.329615503883	589.910588642318	449.954046354806	1118.669076482711	504.478925689128	435.293562035103	1063.671887566844	432.903068719611	418.225579939522	932.629373747510	366.094723418822	369.869147491728	953.750756689312	231.991457963819	408.230956204067	957.471438685841	376.130262082952	622.742718125519	864.610433127008	287.557333860695	681.159846423919	877.190926138695	191.394527014026	611.395399528012	708.837791848199	46.789845565648	576.810953567856	881.012264942001	96.079956982519	616.465799622496	790.285917138453	38.375830157875	653.211610457927	998.501160139751	39.636112763921	649.165848684077	788.000764267782	119.665068407838	447.569219855075	846.892593448932	99.879712307419	358.461620266197	948.200228922274	130.538656066366	374.542010551461	1046.765235228678	46.007490564878	325.805030257947	807.876167831046	1053.519762587527	312.086886687956	805.893637934389	793.381981599854	322.476028226827	976.406859640223	1080.004448542361	876.489197296301	1185.130937226446	926.315288445171	891.659181225186	
110	47.068785714286	715.446427428071	978.663576436442	608.071205159311	880.046404551047	1406.804461717608	404.099139076856	995.657797070900	1344.294360557973	558.180075021966	926.624784242029	1421.953132993186	736.611256372239	876.713609128616	1472.201620740046	560.410229339451	956.037616409003	921.819100853436	705.132485548866	919.024857097541	943.329764797553	433.922337067903	1002.448594322524	723.069329082787	657.887346512883	929.457278366750	602.796171518868	710.151539421614	1003.812930999186	560.371717320220	621.218085676626	1005.345006067558	460.989318721937	620.928878328586	1016.464952749236	773.009716600273	463.713224988845	986.411956092706	645.393554224231	381.106352781898	1091.388829107145	591.197255069170	448.485406413255	1115.897450826274	507.448578693398	433.989137884172	1064.553596843505	434.945696313660	416.690606817602	938.259896840470	360.701010795414	367.287458883325	967.143229051509	227.768135358651	405.807911559517	951.569682048365	376.402236903539	622.446492881556	859.113271547944	287.721491627138	681.317715080207	871.407708367395	191.613836945436	611.432439247297	703.108299411111	46.949490943924	577.126275425542	875.277169798915	96.094097818440	616.614234053690	784.547281286832	38.417380359436	653.360316651636	992.735489028988	39.550114567947	649.165041150149	808.286974089995	105.604957830700	444.111551660723	868.867596427514	89.382722879795	355.448850932073	968.053751912794	125.902210636490	372.150854125406	1071.757799998821	47.375604286125	324.252691336880	789.484473329772	1058.417839782080	313.156914266635	776.802514031007	798.880148945725	325.996834671856	988.589554405322	1085.069556021671	876.698310125785	1207.564426751018	946.161451474771	886.613599133215	
111	47.087857142857	714.662240657673	980.912356053196	609.816933809824	875.818745852788	1408.535893598910	403.379988436922	994.238161535822	1346.097416928135	555.362360134318	928.402135998663	1424.280015894715	734.764786548160	875.212791753960	1473.801921043411	559.422144790039	955.742727101365	922.994836585219	703.739460193420	916.028796483790	945.046353551043	433.010026451348	998.967287105428	723.061423505373	656.812681879976	924.930746358168	603.742858196966	710.080655717666	997.888265081517	560.385366337144	620.617162266895	998.353544767075	461.430754982790	620.497272195706	1012.625384628893	774.174852574394	462.583040174420	981.748752066450	646.640892551184	379.802268383049	1086.545538514418	592.275034547415	446.646063318038	1112.041202974217	510.363406619986	432.448954293002	1064.408667109820	437.143692837766	415.061567099184	943.490549324538	355.632028020893	364.259104207669	979.884424267978	224.340323333756	403.335136845316	944.844734613968	377.065698594529	622.338639467479	852.962784775206	288.089647376248	681.599700449023	865.282188662029	192.061048762797	611.577446227099	697.345148106948	47.087083495117	577.452012950951	869.522342162727	96.128330932631	616.813093566988	778.785443368110	38.446001773168	653.518841260622	986.952493100938	39.487854928225	649.158738514885	828.289732141365	92.872849106688	440.237496374349	890.711230130585	80.030222824620	352.329045329799	987.409295987948	122.250712073220	369.915979192467	1095.996649565962	49.759953013662	323.536411762481	771.979108356995	1064.424738392250	314.128163216375	750.026560739512	805.838039624399	329.529759622958	1000.915790094753	1091.099603554251	876.411653848681	1228.871114579694	967.468901259921	880.775078004962	
